# xmcd CD database file
#
# Track frame offsets:
#	150
#	23542
#	49064
#	76212
#	95556
#	123802
#	148440
#	175687
#	203606
#
# Disc length: 3158 seconds
#
# Revision: 0
# Processed by: cddbd v1.5.2PL0 Copyright (c) Steve Scherf et al.
# Submitted via: CDex 1.51
#
DISCID=6d0c5409
DTITLE=MEZZOFORTE - ISLANDS
DYEAR=2012
DGENRE=Jazz
TTITLE0=ANGEL TOWN
TTITLE1=SUITCASE
TTITLE2=TIME OUT
TTITLE3=FUNKY HOMER
TTITLE4=HEIMAEY
TTITLE5=B&B
TTITLE6=9:08
TTITLE7=HERE AND NOW
TTITLE8=ISLANDS
EXTD=YEAR: 2012
EXTT0=
EXTT1=
EXTT2=
EXTT3=
EXTT4=
EXTT5=
EXTT6=
EXTT7=
EXTT8=
PLAYORDER=
